<svg id="Layer_1" data-name="Layer 1" xmlns="http://www.w3.org/2000/svg" viewBox="0 0 779.05 405.08"><defs><style>.cls-1{fill:#fff;}.cls-2{fill:none;}</style></defs><title>knuckle</title><path class="cls-1" d="M106.25,92.49c-2.28,8.19-4.55,16.06-6.62,24-.84,3.2-1.82,5.34-5.92,5-4.27-.35-7.2,2.33-7.22,6.56,0,5.08,1,10.16,1.4,15.25.29,3.32.37,6.66.59,10.81-8.12-2.78-11.16-8.31-13.6-14.42-1-2.4-.66-6.46-4.74-5.31-.83.24-1.14,5-.47,7.32,2.32,8,7.22,14.12,15.09,17.57,3.82,1.67,6.87.67,8-3.17A35.15,35.15,0,0,0,94,144.93c-.16-3.59-1.46-7.12-2.14-10.7-1.08-5.74.05-6.68,5.76-7.06a7.61,7.61,0,0,0,5.48-3.83c1.9-4.74,2.55-10,4.3-14.77a116.13,116.13,0,0,1,6.23-13.34c1.58-3.06,3.3-2,3.93.57,2.38,9.78,7.21,19.21,5.76,29.61-2.55,18.19-.63,36,3.2,53.8,2.44,11.36,4.38,22.82,6.54,34.23.19,1,.07,2.24.64,2.88,1.44,1.62,3,3.51,4.91,4.15.81.27,3.33-2.12,3.8-3.68,2.61-8.74,5.07-17.54,7.13-26.43,2.91-12.62,4.37-25.67,8.36-37.91,5.71-17.48,11.87-35,23-50.12,8.34-11.39,20.23-16.39,33.95-17.41a8.22,8.22,0,0,1,5.74,2c8.47,8.28,13.39,18,12.1,30.35-.42,4-2,5-5.48,3.49-1.51-.66-2.86-1.77-4.41-2.27s-3.51-1-4.49-.37-1.62,2.92-1.36,4.28c.89,4.71,2.18,9.35,3.43,14,.5,1.86,1.29,3.64,2,5.66-2.72-.78-5-1.75-7.38-2-1.11-.11-3.08,1-3.35,1.86s.81,2.68,1.79,3.44a70.63,70.63,0,0,0,8.51,5.61c1.72,1,4.62,2.4,5.46,1.73,1.5-1.2,2.8-4,2.47-5.84-.72-4-2.52-7.86-3.86-11.78-.95-2.76-1.87-5.54-2.79-8.25.87-.37,1.13-.59,1.4-.59,6.73-.07,10,3.61,12.89,9.55,7.39,14.94,19.57,26,32.79,35.73,11.92,8.8,24.14,17.19,36.22,25.77,3.19,2.27,5.9,1.57,6-2.23a28.67,28.67,0,0,0-2.11-11.88,30.5,30.5,0,0,0-7.13-10.08c-10.4-9.68-12.92-21.91-11.45-35.1,2.15-19.31,9.89-36.39,22.23-51.47C321.18,77.74,330,75,340.74,78a65.14,65.14,0,0,1,35.39,23.81c2,2.61,2.93,6,4.36,9L377.72,113c-.52-1.37-.69-3-1.61-4.07-4.39-4.87-10.46-3.56-12,2.94-1,4.11-.44,8.57-.61,12.88-.1,2.35-.25,4.71-.38,7.06h-1.91c-.2-4.14-.49-8.28-.58-12.42-.11-4.88-1.51-9.16-5.43-12.32-5.21-4.19-7.63-4-12.67.34-1.6,1.38-3.75,2.12-5.65,3.16-.5-2.37-1.55-4.79-1.37-7.11.45-5.76-1.6-8.53-7.39-8.77a32.68,32.68,0,0,0-7.47.14c-1.25.23-2.24,1.83-3.34,2.81,1.13,1,2.16,2.6,3.42,2.82,2.59.44,5.3.13,8.64.13,0,2.39.08,4.47,0,6.54-.22,4.34,1.73,7.3,5.56,9.18s6.67.14,9.39-2.41a12.73,12.73,0,0,1,5.23-3.16c-2,4.81-4.61,9.46-5.78,14.46-4.3,18.35-4.37,36.51,4.08,54,2.52,5.19.89,9.59-4.23,12.52-7.3,4.19-8.74,6-5.27,13.56,6.83,15,5.07,29.17-.62,43.84-6.14,15.85-5,32,.26,47.85,3.37,10.25,7.18,20.37,10.77,30.55,1.94,5.51,2.34,10.92-1.39,16.81a24,24,0,0,1-1.85-3.61c-3.38-11.28-6.84-22.53-9.93-33.88-1.11-4.11-2.92-6.6-7.27-7.67a33.52,33.52,0,0,1-8.95-4.25c-5.22-3.15-7.63-6.93-5.87-13.9,2.59-10.2,0-19.6-8.71-26.75-7-5.75-7.34-14.12-8.16-22.26-1.13-11.2-4-21.89-10.34-31.35s-15.91-13.39-26.88-13.83c-1.86-.07-4.72,2.38-5.59,4.34-3.44,7.77-3.27,16.13-.61,23.9,4.74,13.79,10.26,27.32,15.75,40.84,2.9,7.15,6.43,14,9.16,21.62-8-11.38-20.57-10-31.76-12.16-3.25-.63-6.42-1-7-5-1-6.72-5.06-11.24-10.88-13.93-11.71-5.4-11-17.15-14.34-26.83a3.2,3.2,0,0,1,.64-2.3c6.48-9.68,6.33-20.27,4.8-31.23-.85-6.06-.59-12.26-1.19-18.36-.18-1.87-1.19-4.74-2.46-5.14-1.56-.49-4.06.76-5.64,1.94-1.85,1.39-3.14,3.51-5.62,6.44-1-6.63,1.69-10.52,3.87-14.64a27.17,27.17,0,0,0,2.85-7.71,4.64,4.64,0,0,0-2-4c-1.13-.52-3.39.07-4.42,1-2.21,2-4.63,4.15-5.77,6.77-6.11,14-12,28-17.52,42.22-.71,1.83.47,5.54,2.05,6.9a157.49,157.49,0,0,0,16.49,12c5.13,3.34,9,7.36,9.9,13.6.08.49.29,1,.36,1.45,1.61,11.26,7.28,19.44,17.54,24.82,2.49,1.3,4.3,4.89,5.3,7.81,1.83,5.36,4.44,9,10.61,9.61a126.15,126.15,0,0,1,16.72,2.75c2.95.69,6.28,1.85,8.34,3.9,11.77,11.71,18.85,25.63,18.47,42.64a39.52,39.52,0,0,1-.8,5.24l-1.34.16c-.91-3.71-2.1-7.39-2.65-11.15-.71-4.81-2.66-7.49-8-7.38-6.81.13-13.65-.2-20.46-.5-2.47-.11-4.92-1-7.38-1-2.14,0-5.3-.12-6.18,1.12-1.13,1.58-1,4.65-.38,6.75,1.12,3.61,3.43,6.85,4.58,10.46s.49,6.91-5.16,7.79c-1.39-5.93-2.73-11.66-4.06-17.4-.41-1.77-.8-3.55-1.21-5.33-.84-3.65-2.8-5.55-6.91-5.76-8.2-.41-8.61-1-10.81-8.9-5.78-20.76-29.83-41.2-51.39-43.66-9.71-1.1-14.69,5.86-11.29,16.78a29.32,29.32,0,0,0,6.83,12c11.33,11.06,16,24.18,15.92,39.88-.09,14.89,4.82,28.65,12.32,41.57,6.09,10.5,11.9,21.2,13.81,33.46.07.42,0,.87-.71,1.52-1.64-4.08-3.25-8.18-4.95-12.23-2-4.84-8.62-8.41-13.53-7.06a7.8,7.8,0,0,0-6.19,7.54c-.14,2.81,0,5.64-.8,8.65-1.39-4.26-2.29-8.76-4.27-12.73-3.59-7.23-7.12-14.67-12-21-5.38-7.05-12.67-4.84-15.29,3.85-.13.44-.56.78-1.09,1.49-.94-2.29-1.25-5-2.75-6.16s-4.14-.73-7.69,0c-2-10-4.62-19.92-6-30-3.32-24.8-5.71-49.72-9.16-74.5-2.73-19.64-11-37.41-22.91-53C80.16,180.18,72.79,156.36,64,133.13c-4.53-12,0-21.58,11.49-27.25,7.45-3.69,15-7.29,22.54-10.72A70.91,70.91,0,0,1,106.25,92.49Z" transform="translate(-62.29 -37.99)"/><path class="cls-1" d="M735,291.25l-5.7,3.59,4,5.42c-3.37,8.13,2.76,13.52,8.45,19,2.42,2.32,5.38,2.45,8.24.48,3.29-2.26,7.32-10.95,7-13.73a113.62,113.62,0,0,0,10.35-6c.87-.63.6-2.85.85-4.35a19.8,19.8,0,0,0-4.51.21c-2.45.68-4.74,1.9-7.18,2.64-3.46,1-5.7,2.63-6.22,6.72-.41,3.19-2.23,6.2-3.88,10.48-2.81-3.21-6.25-5.59-7.28-8.76s.42-7,.76-10.53c2.13-.69,4.79-.75,6-2.11,5.38-5.88,12.25-5.29,19-4.88,5.18.32,9.36-1,13.07-4.73,1.09-1.1,3.54-1.43,5.25-1.22,3.11.39,6.1,1.8,9.22,2.15a66.83,66.83,0,0,0,13.69.51c6.29-.61,10.42.49,12.19,6.55a63.21,63.21,0,0,1,2.66,20.47c-.38,7.68-3.26,15.22-4.12,22.92a198.07,198.07,0,0,0-1.26,26.78c.2,8.52-1.4,16.07-7,22.69-12.21,14.43-17.48,32.25-24.12,49.41-1.07,2.77-2.45,5.42-3.7,8.13l-2-.58c.76-4.05.94-8.33,2.4-12.12,3.62-9.45,7.64-18.76,11.84-28,4.92-10.77,9.36-21.61,10.86-33.51.47-3.71-.37-6.05-3.27-8.07-2.56-1.79-5-3.74-7.84-5.88,2.66-2.26,8.66-2.59,5.38-7.2-4-5.54-7.78.28-12,1.53-.55-2-.73-4.24-1.75-6-1.72-2.91-3.47-6.24-6.12-8.05-5.22-3.57-8.1-2.44-11.45,2.93-9.88,15.85-14.72,33.26-16.46,51.7a56,56,0,0,1-2.29,12.17c-.55,1.66-3.17,3.86-4.66,3.72-2.87-.26-7.06.14-7-5a33,33,0,0,0-5.75-19.18,26.37,26.37,0,0,1-3.32-22c.44-1.6.79-3.23,1.11-4.86,3-15.16,1.23-18.26-9.68-24.73,7.47-8.84,6.2-18.77,3-28.65-3-9.27-3.69-18.14-.45-27.69,4.55-13.37-5.17-22.94-19.21-19.85a95.86,95.86,0,0,1-16.17,2.51,10.46,10.46,0,0,1-7.35-3.14c-4.38-4.95-9.29-5.91-15.28-4-1.32.42-2.83.23-4.71.34.18-6.31-1.84-12.35,2.76-17.5a2.28,2.28,0,0,0,.66-1.32c.26-12.07,11-18.6,15.28-28.6,3.17-7.33,6.7-14.89,13.39-20.11a3.32,3.32,0,0,0,.87-1.21c6.9-14.24,13.85-28.46,20.63-42.75,2.56-5.39,3.37-10.88,9.11-15.39,6.7-5.27,9.3-14.71,10.19-23.73a43.53,43.53,0,0,0,.11-5c-.08-5.93,1.51-8,7.47-7a33,33,0,0,1,13.4,4.88c9.18,6.36,19.36,9,30.1,10.9,17.92,3.19,34.11,10.68,49.66,20.12,7.52,4.57,9.3,10.59,8.92,18.21-.83,16.39-8.76,29.6-19.8,43,.61-3,.93-4.62,1.28-6.24,1.47-6.84-.8-11.31-7.41-12.89-3.38-.81-4.67-2.6-5.44-5.54-1-3.68-2.19-7.3-3.12-11-1.24-4.9-4-6.65-8.85-4.74a18.19,18.19,0,0,1-2.62.62c-.4-1.29-.75-2.34-1.07-3.41-2-6.76-2.79-7.09-9.91-6.24a29.48,29.48,0,0,1-8.83-.48c-3.44-.64-5.43.11-6.12,3.78-1.53,8.14-3.1,16.27-4.92,24.35-.79,3.49-2.25,6.84-3.91,11.77-1.47-3.18-2-5.23-3.21-6.75-2.41-3.07-4.8-6.38-7.92-8.58a4.66,4.66,0,0,0-7.33,2.55c-1,3.18,1.54,4.64,4.46,5.31,5,1.17,5.38,2,2.41,6-7.55,10.35-6.61,21.58-3.1,32.85.48,1.52,4.33,3.46,5.87,3,11.11-3.68,19.6,3.39,28.89,6.72a6.77,6.77,0,0,1,4.07,8.57c-1.63,5.71-3,11.49-4.66,18-.82-1.34-1.35-2.06-1.75-2.85-2.65-5.24-4-5.9-9.33-3.24-3.53,1.77-5.53.86-7.24-2.39-3.18-6.05-10.06-7.23-15.46-2.94a110.91,110.91,0,0,1-9.31,6.66c-6,3.79-10.21,16.31-6.67,23.86,4.32,9.21,6.5,18.39,4.49,28.44A5.25,5.25,0,0,0,735,291.25Z" transform="translate(-62.29 -37.99)"/><path class="cls-1" d="M629.44,304.21c-11.49-7.22-21.68-15.8-27.85-27.65-7-13.5-12.77-27.68-19-41.62-1.95-4.39-3.47-9-5.28-13.43-2-4.88-6.85-8.33-11.45-8.23a11.48,11.48,0,0,0-10.82,8.88c-1.1,4.78-2,10-1.27,14.73,1.77,11.94-1.43,22.66-6.17,33.26-2.78,6.21-5.92,12.31-8,18.75a20.22,20.22,0,0,0-.08,10.94c2.33,8.56,2.24,16.71-1.8,24.66-2.39,4.71-4.29,5.05-7.62.88-6.95-8.72-8.47-19.07-7.14-29.65.35-2.72,3.87-6.31,6.68-7.23,13.28-4.35,16.13-18.13,14.6-27.53a59.93,59.93,0,0,0-18.63-35,6.1,6.1,0,0,1-2-2.7c-3-13-.59-24.64,8.2-33.29h14.25c.09,1.45.13,3.51.38,5.55.51,4.23,3,6.78,7.22,6.88s4.34-3.31,5-6.6c.89-4.31,2-8.93,4.32-12.56,9-13.9,9-29.27,8-44.77-.76-12.39-3.56-24.39-11-35a36.51,36.51,0,0,0-17.51-12.91c-4-1.46-4.92-4.34-3.59-7.36a24.45,24.45,0,0,1,7.24-9.66c8.26-6.1,17.67-10.6,24.48-18.75,1-1.18,4.9-.6,7.17.11,3.44,1.06,6.56,3.13,10,4.44,2.73,1,4.66,0,6-2.85,1.1-2.35,3.39-4.24,4.11-6.65s0-5.15.12-7.74c0-1.36.14-3.76.63-3.87,1.58-.37,3.89-.51,5,.38A12.9,12.9,0,0,1,608,53.06a104.67,104.67,0,0,1-7,17.5c-8.17,15.54-15,31.51-17,49.09a207.13,207.13,0,0,0-1.33,21.84c0,5.52,2.67,7.11,7.83,5.23,9.16-3.33,15.74-9.82,21-17.75q6.19-9.36,11.84-19.07c3.47-5.91,8.09-10.05,15-11.37,7.4-1.41,12.91-6,18-11.06,3.21-3.14,6.19-3.78,10.61-2.42,7.28,2.24,14.84,3.6,22.33,5.16,4.5.93,8.12,2.88,10.13,7.2,2.3,4.94,1.39,7.53-3.3,10.2-8.74,5-9.87,13.77-10.4,22.41-.39,6.25,1,12.61.65,18.87-.25,4.73-2,9.38-3.75,13.92-3.85-9.81-3.34-19.73-2.68-29.62.19-2.75,1-5.64-2.24-6.77s-6.88-2.37-9.66,1.14c-1.62,2.05-3,4.27-4.53,6.39-9.49-3.44-15.37-.39-18,10-1.37,5.44-4,8.51-9.33,10.75-12.55,5.22-23.64,12.76-32.5,23.41-4,4.84-4.79,9.81-2.37,15.18,1.81,4,3.72,8.5,6.87,11.36,7.64,6.93,10.54,15.55,12.5,25.27,1.88,9.36,5.36,18.42,8.26,27.56s6,18.24,8.92,27.39c1.46,4.61.81,8.69-3,12.25C632.74,299.14,631.24,301.82,629.44,304.21Z" transform="translate(-62.29 -37.99)"/><path class="cls-1" d="M551.9,193.17c-.09-2.09-.23-3.84-.24-5.59q-.07-12.72-.08-25.44c0-3.46-1.25-5.95-5-6.12-2.85-.13-6,3.91-5.55,7,.81,5.25,1.68,10.5,2.94,15.65.73,3-.26,4.32-2.87,5.28-3,1.12-4-.87-4.58-3a64.31,64.31,0,0,1-1.92-10.18c-.68-7.76-.7-15.6-1.69-23.31-.76-5.92-4.58-9.17-10.55-9.16-3.92,0-5.49-1.92-7.21-4.81a101.39,101.39,0,0,0-8.85-13.08c-1.81-2.19-5-4.32-7.75-1.2-2.47,2.75-1.72,5.77.68,8.51,7.46,8.52,7.45,7.42-2,14.88-2.47,2-5,3.83-7.62,5.64-13.68,9.58-18.58,22.66-14.79,38.7,2.33,9.89,2.53,19.24-2.28,28.52-2.75,5.31-2.8,10.87.84,16,5.28,7.5,5,16.34,6,24.86.85,7.76,1.38,15.54,2.14,23.3.46,4.78,3.91,6.46,8.18,4.05,4.52-2.54,5.6-7,5.63-11.54,0-3.5,1.47-5.1,4.45-6.14,3.77-1.31,7.47-2.81,11.21-4.19,9.86-3.64,12.93-8.46,12.12-19-.28-3.63-.51-7.26-.82-11.77a20.36,20.36,0,0,1,3.08,2.43c7.76,9.66,13.58,20.11,13.2,33-.21,7.28-3.09,12.63-10.18,15.61-3,1.24-6.18,3.09-8,5.59-2.28,3.18-4.49,4-7.95,2.93-1.58-.5-3.24-.78-4.86-1.15-13.13-2.93-17.87-.92-24.85,10.52a30.91,30.91,0,0,1-2.2,3.33c-3.72,4.58-7.85,4.74-10.82-.3-2.11-3.59-2.79-8-4.2-12-.62-1.74-1.47-3.41-2.21-5.11-1.54,1-3.48,1.63-4.56,3-6.84,8.45-16.91,8.47-22.54-.11-2.9-4.41-.46-12.48,3.52-15.69a18,18,0,0,0,6.17-9.32,255.24,255.24,0,0,0,3.75-26.48c.45-4.25.07-8.58.07-13.2,5.94,1.16,8.21-1.58,9.09-6.77,1.57-9.18,1.38-18.14-2.23-27.26,6,.2,7-3.28,7.07-8.07.09-10.63,1.26-21.3.65-31.88-.5-8.83-2.92-17.55-4.44-26.33a10.89,10.89,0,0,1-.3-4.22c4.06-17.44,15.33-27,32.82-29.58,14.67-2.16,28.51-.45,43.08,3.91,23.4,7,27.72,24.63,29.78,44.34.88,8.49,0,17.26-1,25.81-.44,4.13-2.58,8.15-4.3,12.07C557.55,181.71,554.79,187.12,551.9,193.17Z" transform="translate(-62.29 -37.99)"/><path class="cls-1" d="M439.63,263.77c-4.59-4.06-6.25-3.57-7.28,2-2,10.75-3.72,21.55-5.86,32.27-.73,3.65-2.38,7.12-3.6,10.68l-1.78.72c-2-2.52-4.42-4.83-5.88-7.63s-.92-6.79-5.53-6.19c-4.36.56-7.92,2.57-9.18,7.25a25.17,25.17,0,0,1-.9,3.36c-1.1,2.57-2.33,5.08-3.51,7.62l-2-.12c-1-2.49-2-4.94-2.89-7.46-4.49-13.15-9.48-15.08-21.56-8.12-2.72,1.57-5.24,3.5-8.6,5.76-.9-2.75-1.85-5.26-2.55-7.84a16.37,16.37,0,0,0-7.88-10.38c-9.73-5.73-12.71-12.44-10.23-23.68,1.72-7.76,4.13-15.38,6.41-23,2.95-9.9,3-19.61-1.16-29.21-.92-2.13-1.34-4.46-2.23-6.6-1.19-2.82-.44-4.43,2.25-6,9.64-5.57,11.17-12.57,6.49-22.54-2.41-5.14-3.21-11-4.66-16.63-.72-2.73.46-4.29,3.16-5.17,5.49-1.8,10.89-3.83,17.43-6.15.37,2.41.88,5,1.1,7.59a5,5,0,0,1-.88,2.83c-4.8,7.53-3.55,14,3.17,19.71,2.91,2.46,3.25,5.34,2.1,8.95a136.08,136.08,0,0,0-5.11,19.11,21,21,0,0,0,1.39,11.19c5.73,13.26,12.06,26.27,18.11,39.4,2.23,4.84,5.63,6.34,10.88,5,10.52-2.72,18.86-8.38,22.47-18.66,2.71-7.73,4.78-16.08,5-24.2.4-17.59-.8-35.22-.93-52.83a210.64,210.64,0,0,1,1.42-24.33C428,129.78,435.25,123,443.23,117c1.09-.8,5.09.14,5.83,1.4,3.08,5.18,7.12,10.62,7.7,16.29,1.42,13.82,1.1,27.82,1.45,41.75,0,.18-.43.38-.94.8-.3-1-.29-2.19-.86-2.69-1.88-1.59-4-4.17-6-4.09-3.65.17-3.14,3.74-2.61,6.3,1.25,6,2.54,12,4.28,17.87,2,6.8,3.33,13.51.34,20.46,0-1.9.59-4.07-.15-5.61-.86-1.79-2.87-3-4.38-4.51-1.16,1.54-3.24,3.05-3.31,4.64-.36,7.8.29,15.67-.31,23.44-.74,9.53-2.35,19-3.63,28.48A9.36,9.36,0,0,1,439.63,263.77Zm-54.95,10.61a32.11,32.11,0,0,0,5.26-4.43c.75-.87.08-2.95.05-4.48-1.45.3-3.32.13-4.26,1-3.22,2.92-5,2.56-5.31-1.86-.49-7-5.11-11.7-9.19-16.67a3.49,3.49,0,0,0-3.35-.72,3.75,3.75,0,0,0-1.13,3.32,10.51,10.51,0,0,0,2.51,4.22c3.28,3.53,5.33,7.35,5.43,12.41C374.77,271.38,378.56,274.28,384.68,274.38Z" transform="translate(-62.29 -37.99)"/><path class="cls-1" d="M697.82,344.76c.32-6.21.73-10.81.77-15.41.06-9.5-6.55-13.83-16.35-9.65,1-4.41,1.57-8.24,2.79-11.86,1.75-5.18,4.22-10.12,6-15.31,2.5-7.49-1.26-11.91-8.76-9.7a78.91,78.91,0,0,0-17.6,7.82c-5.7,3.36-10.69,7.91-16.11,11.77a19.75,19.75,0,0,1-6.19,3.09c-1.31.35-3-.6-4.45-1a23.56,23.56,0,0,1,1.17-3.88c1.71-3.45,4.33-6.65,5.16-10.28.69-3-.23-6.65-1.16-9.79-2.25-7.61-4.34-15.35-7.57-22.56a136.59,136.59,0,0,1-10.75-36.59c-1-7.14-4.49-12.57-9.14-17.78a78.65,78.65,0,0,1-8.8-12.51c-2-3.48-1-6.82,1.6-10,8.85-10.69,20.24-17.77,32.9-22.74,5.13-2,7.94-4.87,8.78-10.15a21,21,0,0,1,2-6.1c2.51-4.85,4.08-5.25,9-2.73s6,2.09,8.19-3a17.13,17.13,0,0,1,4.11-5.65c-.08,13.78-1,27.32,5.9,39.86-15.1,7.56-15.1,7.56-23,30-1.45-3.29-2.31-6.33-4-8.76a9.83,9.83,0,0,0-5.5-3.58c-1.09-.23-3.34,1.65-3.87,3s.37,3.27,1.13,4.69c1.65,3.08,4.87,5.84,5.24,9,1.57,13.48,2.59,27,3.31,40.6.45,8.62,3.5,11.57,11.78,9.23,4.37-1.23,7.58-.84,10.57,2.81,4.79,5.85,11.51,5.22,18,4.36,4.27-.56,8.4-2.08,12.66-2.74,8.23-1.28,13.52,4.3,10.76,12-3.86,10.71-3.49,21.05.12,31.64a52,52,0,0,1,2.06,10.71c.57,4.86-1.07,9.06-4.32,12.79-3.82,4.39-7.34,9-11.09,13.48A71,71,0,0,1,697.82,344.76Z" transform="translate(-62.29 -37.99)"/><path class="cls-1" d="M687.14,168.64c1.81-6.07,3.87-10.53,4.35-15.15.66-6.19-.07-12.51.11-18.76a91.31,91.31,0,0,1,1.3-13.82c.94-5.08,4-8.77,9.3-10,3.48-.8,4.32-3,4.4-6.21.32-11.43-5.79-19-17.07-20.93-4.42-.77-8.84-1.53-13.21-2.55-4.89-1.14-8.15-5.13-7.68-9,.39-3.24,5.86-8.42,9.5-8.39,13,.11,25.59,2.27,36.55,9.79,11.6,8,14.69,20.82,9.15,32.57-1.35-2.09-2.6-5.26-4.89-7.22-2.48-2.13-5.06-.21-5.12,3.17-.45,21.86-8.52,41.3-19.36,59.78C693.08,164.31,690.28,165.84,687.14,168.64Z" transform="translate(-62.29 -37.99)"/><path class="cls-2" d="M384.68,274.38c-6.12-.1-9.91-3-10-7.22-.1-5.06-2.15-8.88-5.43-12.41a10.51,10.51,0,0,1-2.51-4.22,3.75,3.75,0,0,1,1.13-3.32,3.49,3.49,0,0,1,3.35.72c4.08,5,8.7,9.67,9.19,16.67.32,4.42,2.09,4.78,5.31,1.86.94-.86,2.81-.69,4.26-1,0,1.53.7,3.61-.05,4.48A32.11,32.11,0,0,1,384.68,274.38Z" transform="translate(-62.29 -37.99)"/></svg>